FFmpeg version SVN-r25716, Copyright (c) 2000-2010 the FFmpeg developers  built on Nov 10 2010 12:23:18 with gcc 4.1.2 20080704 (Red Hat 4.1.2-48)  configuration: --enable-libmp3lame --enable-shared --disable-mmx --arch=x86_64  libavutil     50.33. 0 / 50.33. 0  libavcore      0.12. 1 /  0.12. 1  libavcodec    52.94. 4 / 52.94. 4  libavformat   52.84. 0 / 52.84. 0  libavdevice   52. 2. 2 / 52. 2. 2  libavfilter    1.59. 0 /  1.59. 0  libswscale     0.12. 0 /  0.12. 0Input #0, avi, from '/RAID10/data/converted_video_files/47382.avi':  Duration: 00:00:08.25, start: 0.000000, bitrate: 20978 kb/s    Stream #0.0: Video: msvideo1, rgb555le, 1024x1024, 20 tbr, 20 tbn, 20 tbc[buffer @ 0x17450520] w:1024 h:1024 pixfmt:rgb555le[ffsink @ 0x1744fb40] auto-inserting filter 'auto-inserted scaler 0' between the filter 'src' and the filter 'out'[scale @ 0x1744ea70] w:1024 h:1024 fmt:rgb555le -> w:1024 h:1024 fmt:yuv420p flags:0x4Output #0, flv, to '/RAID10/data/converted_video_files/47382.flv':  Metadata:    encoder         : Lavf52.84.0    Stream #0.0: Video: flv, yuv420p, 1024x1024, q=2-31, 600 kb/s, 1k tbn, 24 tbcStream mapping:  Stream #0.0 -> #0.0Press [q] to stop encodingframe=    8 fps=  0 q=11.5 size=     357kB time=0.37 bitrate=7823.5kbits/s    frame=   16 fps= 14 q=31.0 size=     397kB time=0.79 bitrate=4109.0kbits/s    frame=   26 fps= 16 q=31.0 size=     434kB time=1.29 bitrate=2752.4kbits/s    frame=   38 fps= 17 q=31.0 size=     472kB time=1.87 bitrate=2061.8kbits/s    frame=   45 fps= 16 q=29.8 size=     478kB time=2.25 bitrate=1740.5kbits/s    frame=   54 fps= 16 q=30.5 size=     513kB time=2.71 bitrate=1550.3kbits/s    frame=   66 fps= 17 q=29.3 size=     551kB time=3.29 bitrate=1370.0kbits/s    frame=   78 fps= 18 q=27.2 size=     588kB time=3.88 bitrate=1243.5kbits/s    frame=   89 fps= 18 q=27.8 size=     625kB time=4.46 bitrate=1149.3kbits/s    frame=  101 fps= 19 q=27.4 size=     664kB time=5.04 bitrate=1079.5kbits/s    frame=  113 fps= 19 q=26.9 size=     703kB time=5.62 bitrate=1024.5kbits/s    frame=  125 fps= 19 q=27.4 size=     744kB time=6.25 bitrate= 974.8kbits/s    frame=  135 fps= 19 q=27.6 size=     782kB time=6.75 bitrate= 948.8kbits/s    frame=  147 fps= 20 q=27.2 size=     822kB time=7.33 bitrate= 918.5kbits/s    frame=  159 fps= 20 q=26.0 size=     863kB time=7.96 bitrate= 887.8kbits/s    frame=  165 fps= 20 q=23.3 Lsize=     869kB time=8.25 bitrate= 863.1kbits/s    video:866kB audio:0kB global headers:0kB muxing overhead 0.321212%